<?xml version="1.0" encoding="UTF-8" standalone="no"?>
<svg
   xmlns:dc="http://purl.org/dc/elements/1.1/"
   xmlns:cc="http://creativecommons.org/ns#"
   xmlns:rdf="http://www.w3.org/1999/02/22-rdf-syntax-ns#"
   xmlns:svg="http://www.w3.org/2000/svg"
   xmlns="http://www.w3.org/2000/svg"
   viewBox="0 0 24 24"
   height="12"
   width="12"
   id="svg2"
   version="1.1">
  <metadata
     id="metadata8">
    <rdf:RDF>
      <cc:Work
         rdf:about="">
        <dc:format>image/svg+xml</dc:format>
        <dc:type
           rdf:resource="http://purl.org/dc/dcmitype/StillImage" />
        <dc:title></dc:title>
      </cc:Work>
    </rdf:RDF>
  </metadata>
  <defs id="defs6" />
  <path d="M22.5.248H7.228a6.977 6.977 0 100 13.954h2.318a.25.25 0 01.25.25V22.5a1.25 1.25 0 002.5 0V3a.25.25 0 01.25-.25h3.682a.25.25 0 01.25.25v19.5a1.25 1.25 0 002.5 0V3a.249.249 0 01.25-.25H22.5a1.25 1.25 0 000-2.5zM9.8 11.452a.25.25 0 01-.25.25H7.228a4.477 4.477 0 110-8.954h2.318A.25.25 0 019.8 3z"></path>
</svg>