<?xml version="1.0" encoding="UTF-8" standalone="no"?>
<svg
   xmlns:dc="http://purl.org/dc/elements/1.1/"
   xmlns:cc="http://creativecommons.org/ns#"
   xmlns:rdf="http://www.w3.org/1999/02/22-rdf-syntax-ns#"
   xmlns:svg="http://www.w3.org/2000/svg"
   xmlns="http://www.w3.org/2000/svg"
   viewBox="0 0 24 24"
   height="12"
   width="12"
   id="svg2"
   version="1.1">
  <metadata
     id="metadata8">
    <rdf:RDF>
      <cc:Work
         rdf:about="">
        <dc:format>image/svg+xml</dc:format>
        <dc:type
           rdf:resource="http://purl.org/dc/dcmitype/StillImage" />
        <dc:title></dc:title>
      </cc:Work>
    </rdf:RDF>
  </metadata>
  <defs id="defs6" />
  <path d="M22.608.161a.5.5 0 00-.545.108L19.472 2.86a.25.25 0 01-.292.045 12.537 12.537 0 00-12.966.865A12.259 12.259 0 006.1 23.632a1.25 1.25 0 001.476-2.018 9.759 9.759 0 01.091-15.809 10 10 0 019.466-1.1.25.25 0 01.084.409l-1.85 1.85a.5.5 0 00.354.853h6.7a.5.5 0 00.5-.5V.623a.5.5 0 00-.313-.462z"></path>
</svg>