<?xml version="1.0" encoding="UTF-8" standalone="no"?>
<svg
   xmlns:dc="http://purl.org/dc/elements/1.1/"
   xmlns:cc="http://creativecommons.org/ns#"
   xmlns:rdf="http://www.w3.org/1999/02/22-rdf-syntax-ns#"
   xmlns:svg="http://www.w3.org/2000/svg"
   xmlns="http://www.w3.org/2000/svg"
   viewBox="0 0 24 24"
   height="12"
   width="12"
   id="svg2"
   fill="white"
   version="1.1">
  <metadata
     id="metadata8">
    <rdf:RDF>
      <cc:Work
         rdf:about="">
        <dc:format>image/svg+xml</dc:format>
        <dc:type
           rdf:resource="http://purl.org/dc/dcmitype/StillImage" />
        <dc:title></dc:title>
      </cc:Work>
    </rdf:RDF>
  </metadata>
  <defs id="defs6" />
  <path d="M20.485 3.511A12.01 12.01 0 1024 12a12.009 12.009 0 00-3.515-8.489zm-1.767 15.21A9.51 9.51 0 1121.5 12a9.508 9.508 0 01-2.782 6.721z"></path>
  <path d="M16.987 7.01a1.275 1.275 0 00-1.8 0l-3.177 3.177L8.829 7.01a1.277 1.277 0 00-1.805 1.806l3.176 3.177-3.176 3.178a1.277 1.277 0 001.805 1.806l3.176-3.177 3.177 3.178a1.277 1.277 0 001.8-1.806l-3.176-3.178 3.176-3.177a1.278 1.278 0 00.005-1.807z"></path>
</svg>