<?xml version="1.0" encoding="UTF-8" standalone="no"?>
<svg
   xmlns:dc="http://purl.org/dc/elements/1.1/"
   xmlns:cc="http://creativecommons.org/ns#"
   xmlns:rdf="http://www.w3.org/1999/02/22-rdf-syntax-ns#"
   xmlns:svg="http://www.w3.org/2000/svg"
   xmlns="http://www.w3.org/2000/svg"
   viewBox="0 0 24 24"
   height="12"
   width="12"
   id="svg2"
   version="1.1">
  <metadata
     id="metadata8">
    <rdf:RDF>
      <cc:Work
         rdf:about="">
        <dc:format>image/svg+xml</dc:format>
        <dc:type
           rdf:resource="http://purl.org/dc/dcmitype/StillImage" />
        <dc:title></dc:title>
      </cc:Work>
    </rdf:RDF>
  </metadata>
  <defs id="defs6" />
  <path d="M22.5 21.248h-21a1.25 1.25 0 000 2.5h21a1.25 1.25 0 000-2.5zM1.978 2.748h1.363a.25.25 0 01.25.25v8.523a8.409 8.409 0 0016.818 0V3a.25.25 0 01.25-.25h1.363a1.25 1.25 0 000-2.5H16.3a1.25 1.25 0 000 2.5h1.363a.25.25 0 01.25.25v8.523a5.909 5.909 0 01-11.818 0V3a.25.25 0 01.25-.25H7.7a1.25 1.25 0 100-2.5H1.978a1.25 1.25 0 000 2.5z"></path>
</svg>