<?xml version="1.0" encoding="UTF-8" standalone="no"?>
<svg
   xmlns:dc="http://purl.org/dc/elements/1.1/"
   xmlns:cc="http://creativecommons.org/ns#"
   xmlns:rdf="http://www.w3.org/1999/02/22-rdf-syntax-ns#"
   xmlns:svg="http://www.w3.org/2000/svg"
   xmlns="http://www.w3.org/2000/svg"
   viewBox="0 0 571.84003 250.24001"
   height="250.24001"
   width="571.84003"
   id="svg2"
   version="1.1">
  <metadata
     id="metadata8">
    <rdf:RDF>
      <cc:Work
         rdf:about="">
        <dc:format>image/svg+xml</dc:format>
        <dc:type
           rdf:resource="http://purl.org/dc/dcmitype/StillImage" />
        <dc:title></dc:title>
      </cc:Work>
    </rdf:RDF>
  </metadata>
  <defs
     id="defs6" />
  <path
     style="fill:#75ac56;stroke-width:0.32000002"
     d="M 12.271321,249.78567 C 6.4635885,248.37693 1.5691615,243.33313 0.35362683,237.50426 c -0.50276924,-2.41094 -0.50276924,-222.357574 0,-224.768509 C 1.6042199,6.7387683 6.7387684,1.6042198 12.735751,0.35362683 13.954803,0.0994094 45.5331,0 125.06852,0 c 97.5686,0 110.85585,0.05699536 112.48955,0.48252146 6.04098,1.57347444 10.63454,6.29812904 11.89177,12.23114054 0.69087,3.260255 0.69087,221.552428 0,224.812688 -1.25723,5.93301 -5.85079,10.65766 -11.89177,12.23114 -1.63473,0.42579 -14.88963,0.47932 -112.7453,0.4553 -87.532467,-0.0215 -111.240075,-0.11145 -112.541449,-0.42712 z m 64.826369,-31.02868 31.445,-20.02428 45.64866,-0.0864 45.64866,-0.0863 2.9335,-0.99764 c 7.22511,-2.45716 12.45935,-6.93946 15.6507,-13.40236 1.96168,-3.97264 2.6958,-7.09195 2.6958,-11.45447 0,-5.77284 -4.73512,-90.079661 -5.22491,-93.027454 -0.92005,-5.537206 -3.17718,-9.754048 -7.54234,-14.09088 -2.48032,-2.464211 -3.6304,-3.339556 -5.96512,-4.540135 -5.5784,-2.868576 -5.78301,-2.898467 -21.25597,-3.105369 l -13.58835,-0.1817 -0.23417,-0.96 c -0.12879,-0.528 -0.61508,-2.76 -1.08064,-4.96 -4.35172,-20.564208 -15.99309,-35.645889 -31.0285,-40.198217 -2.58766,-0.783474 -3.36724,-0.871685 -7.68,-0.869003 -5.68054,0.0035 -8.17927,0.55285 -12.94214,2.845189 -10.01729,4.821254 -18.016246,14.628682 -23.213683,28.462031 -0.985462,2.622877 -2.857818,9.657699 -3.364205,12.64 -0.194249,1.144 -0.424262,2.322071 -0.511139,2.617936 -0.143866,0.48993 -1.334723,0.549405 -13.343402,0.666416 -14.518478,0.141466 -14.646135,0.156711 -19.304443,2.305072 -7.046893,3.249949 -12.440759,9.499831 -14.518791,16.822948 -0.588999,2.075671 -1.074848,8.429169 -3.718538,48.627636 -1.866611,28.38263 -2.976086,47.19508 -2.87289,48.7131 0.60633,8.919 6.209114,17.30089 14.258027,21.33031 1.732592,0.86737 3.957603,1.75773 4.944464,1.97858 0.986864,0.22085 1.934317,0.57026 2.105456,0.77647 0.209891,0.2529 -1.404752,6.7714 -4.961027,20.02823 -2.899706,10.80932 -5.273431,19.84871 -5.274945,20.08755 -0.0016,0.23883 0.189104,0.36061 0.423591,0.27063 0.234489,-0.09 14.576596,-9.17453 31.871345,-20.18789 z m -21.01497,4.20302 c 0.650569,-1.72118 8.230202,-30.75394 8.070778,-30.914 -0.112845,-0.1133 -2.101543,-0.29248 -4.419335,-0.39818 -3.708403,-0.16912 -4.521395,-0.31305 -6.77416,-1.19928 -7.198689,-2.83195 -12.28554,-9.98772 -12.318426,-17.32854 -0.01984,-4.43265 5.790982,-91.504669 6.232473,-93.389991 1.62209,-6.926851 7.331134,-12.640464 14.262878,-14.274285 1.647213,-0.388253 4.433587,-0.487226 13.823076,-0.491002 l 11.760001,-0.0047 v 4.04223 c 0,3.453114 -0.0912,4.189796 -0.625789,5.054775 -1.654304,2.67672 -0.794055,5.797984 1.976845,7.172634 2.036531,1.010329 3.665251,0.747776 5.359549,-0.863972 1.605238,-1.527027 1.951523,-3.130889 1.114547,-5.162176 -0.475594,-1.154233 -0.597824,-2.309168 -0.609965,-5.763491 l -0.01519,-4.32 33.420198,-0.08149 c 26.52471,-0.06468 33.47279,0.0013 33.6751,0.32 0.1402,0.220819 0.25711,2.027225 0.25981,4.014237 0.004,2.987744 -0.10582,3.829776 -0.6351,4.867251 -1.85866,3.643271 0.31436,7.483079 4.23481,7.483079 3.56797,0 5.84355,-3.965933 4.12035,-7.181047 -0.48115,-0.897738 -0.62838,-1.976403 -0.72,-5.275261 l -0.11516,-4.146771 12,-0.08902 c 9.89733,-0.07342 12.3925,-0.0022 14.24,0.406355 6.9511,1.537251 12.59377,7.062483 14.38199,14.082669 0.74712,2.933056 5.71591,93.091276 5.27971,95.799846 -1.01679,6.31366 -5.02753,11.72479 -10.7017,14.43827 -1.408,0.67332 -3.32309,1.3812 -4.25575,1.57306 -1.1772,0.24216 -15.57216,0.34883 -47.07435,0.34883 H 106.6513 l -24.873555,15.84 c -13.680455,8.712 -25.092404,15.84 -25.359886,15.84 -0.267482,0 -0.418294,-0.18 -0.335139,-0.4 z M 138.6776,177.7588 c 17.97615,-2.10278 33.95831,-9.04729 49.91232,-21.68771 6.53368,-5.17666 19.73009,-19.26599 19.73009,-21.0651 0,-0.72615 -3.63436,-5.38929 -7.58025,-9.72598 -6.91001,-7.5944 -15.90356,-14.94665 -24.7347,-20.22067 -11.42397,-6.822485 -23.30074,-11.021275 -36.16505,-12.785416 -4.8893,-0.67049 -17.16425,-0.75992 -21.92,-0.159696 -16.18555,2.042768 -31.442981,7.882797 -45.600006,17.454132 -6.695581,4.52678 -14.803457,11.45331 -20.076923,17.15165 -3.109661,3.36019 -5.843079,6.6563 -5.843079,7.0459 0,0.76571 5.830618,7.45772 11.023579,12.65217 6.359258,6.36108 11.549194,10.6772 18.106397,15.05784 14.419044,9.63289 27.730532,14.53565 44.950032,16.55558 2.8513,0.33447 14.49923,0.15992 18.19759,-0.2727 z m -15.91108,-7.84943 c -7.44819,-1.17167 -15.25587,-5.25755 -20.15182,-10.54576 -4.61186,-4.98136 -7.53146,-10.57311 -9.070106,-17.37151 -0.716192,-3.16442 -0.716192,-11.05977 0,-14.22419 1.633539,-7.21767 4.816125,-13.07013 9.807506,-18.03502 3.86138,-3.8409 7.95673,-6.4027 13.12791,-8.21204 4.22329,-1.47769 6.6663,-1.844945 12,-1.803966 4.0637,0.03123 5.27993,0.163722 7.92875,0.863786 3.56238,0.94152 8.17419,3.02482 11.11113,5.01925 2.6173,1.77738 6.35035,5.34238 8.35317,7.97716 2.2183,2.91824 4.91848,8.52516 5.9441,12.34293 0.78253,2.91286 0.85967,3.71683 0.85967,8.96 0,5.21509 -0.0797,6.05598 -0.8422,8.88875 -1.62342,6.031 -4.5687,11.22767 -8.94983,15.79115 -4.38535,4.56789 -10.25658,8.00015 -16.40479,9.5901 -3.57696,0.925 -10.29555,1.29704 -13.71349,0.75936 z m 11.07622,-21.98223 c 2.8954,-1.36028 5.39513,-3.77167 6.78054,-6.54093 1.08166,-2.16211 1.75001,-4.87959 1.30866,-5.32094 -0.12384,-0.12384 -3.12919,-0.44119 -6.67855,-0.70522 -5.17958,-0.38529 -6.45338,-0.57095 -6.45338,-0.9406 0,-0.25331 2.088,-2.33419 4.64,-4.62418 2.552,-2.28999 4.6846,-4.34059 4.73912,-4.55688 0.15267,-0.60575 -2.92227,-2.86857 -4.97845,-3.66361 -2.78114,-1.07535 -6.98771,-1.20719 -9.66341,-0.30287 -3.86313,1.30566 -6.7584,3.84663 -8.5778,7.5281 -2.93329,5.93541 -0.97306,13.65542 4.4846,17.6617 2.68172,1.96856 5.22817,2.69541 9.03594,2.57917 2.81236,-0.0858 3.46198,-0.22077 5.36273,-1.11374 z m 22.63727,18.30207 c 0,-0.11766 0.94979,-1.23979 2.11064,-2.49362 13.28382,-14.34774 15.00546,-36.07638 4.14918,-52.36604 -1.11781,-1.67725 -2.92969,-4.02741 -4.0264,-5.22258 -1.0967,-1.19517 -1.91584,-2.25122 -1.82029,-2.34677 0.22904,-0.22903 5.47527,1.86972 8.70687,3.48319 8.77359,4.38045 17.50346,10.52557 24.93654,17.5533 3.64592,3.44709 9.14346,9.53253 9.14346,10.12124 0,1.04792 -8.65254,9.99438 -14.08,14.5583 -7.4891,6.29753 -16.81572,12.03821 -25.02119,15.40093 -3.18114,1.30367 -4.09881,1.59742 -4.09881,1.31205 z m -62.080005,-2.18952 c -8.955575,-4.02917 -16.961361,-9.1037 -24.800001,-15.71966 -3.612289,-3.04885 -12.70682,-12.10567 -13.738475,-13.68151 l -0.577078,-0.88148 1.858298,-2.11663 c 5.055641,-5.75846 15.018608,-13.91975 22.925047,-18.77935 6.049053,-3.71798 15.303265,-8.23927 17.946075,-8.76783 0.970662,-0.19413 0.92359,-0.10665 -1.427488,2.65301 -7.159742,8.40399 -10.590878,17.51852 -10.590878,28.13377 0,10.52198 3.615537,20.13952 10.616314,28.24 2.396138,2.77253 2.141665,2.87834 -2.211814,0.91968 z M 94.822738,57.406159 c -0.403648,-1.051894 1.747593,-9.525479 3.639622,-14.336196 4.36174,-11.090276 11.79631,-20.011608 19.53145,-23.437345 6.11701,-2.709098 12.90063,-2.711668 18.75431,-0.0071 9.11503,4.211404 16.38569,13.497608 20.72161,26.465992 1.38653,4.146983 2.98441,11.032583 2.67603,11.531556 -0.1109,0.17943 -13.03343,0.29694 -32.65468,0.29694 -29.518598,0 -32.489091,-0.04672 -32.668342,-0.513843 z M 519.20003,219.20213 c -1.95901,-0.3486 -2.90823,-0.82748 -4.44131,-2.24061 -2.01799,-1.86013 -2.85585,-3.98731 -2.70033,-6.85577 0.11396,-2.10185 0.60487,-3.41845 6.78653,-18.20146 4.18967,-10.01927 6.6097,-16.19719 6.51821,-16.64 -0.08,-0.38736 -6.03309,-14.81628 -13.22902,-32.06428 L 499.05059,111.84 l 0.003,-2.4 c 0.003,-2.57779 0.53625,-4.01196 2.25369,-6.053 1.02394,-1.21691 3.30237,-2.4243 5.15917,-2.73396 2.97715,-0.49652 6.80803,1.11735 8.52026,3.58942 0.45619,0.65865 5.14061,11.49354 10.40979,24.07755 5.33232,12.7347 9.75523,22.88 9.97475,22.88 0.21965,0 4.60151,-10.06628 9.89005,-22.72 5.22262,-12.49601 9.72727,-23.15201 10.01034,-23.68001 3.12246,-5.824476 12.01667,-5.547554 15.41651,0.48 0.87283,1.54745 0.99066,2.04985 0.97562,4.16 l -0.017,2.4 -21.37444,51.18822 c -11.75593,28.15352 -21.77971,51.77725 -22.27504,52.49719 -1.93856,2.81758 -5.42797,4.27611 -8.79629,3.67672 z M 286.40002,184.34347 c -2.95429,-0.60965 -5.63306,-2.99268 -6.58466,-5.8577 -0.64319,-1.93645 -0.5026,-5.02282 0.30505,-6.69675 0.31075,-0.64404 10.26481,-12.80592 22.12015,-27.0264 11.85533,-14.22047 21.48464,-25.96953 21.39843,-26.10901 -0.0862,-0.13948 -8.40259,-0.25361 -18.48086,-0.25361 -21.07681,0 -20.30929,0.0906 -23.12895,-2.72909 -4.31654,-4.31654 -3.27407,-11.06239 2.17602,-14.0811 l 1.71481,-0.94981 h 29.76001 c 29.62086,0 29.76685,0.003 31.22237,0.67651 4.37344,2.02322 6.48963,7.459 4.55568,11.70196 -0.42093,0.92349 -8.92237,11.33603 -22.15613,27.13677 -11.8102,14.10107 -21.50659,25.81077 -21.54751,26.02154 -0.0568,0.29274 4.42133,0.42101 18.96559,0.54323 l 19.04,0.16 1.73459,0.96 c 3.13914,1.73735 4.73261,4.82111 4.43123,8.57558 -0.19616,2.44383 -1.04969,4.19981 -2.81798,5.79734 -2.68807,2.4285 -0.33559,2.26163 -32.62784,2.31437 -15.928,0.026 -29.464,-0.0567 -30.08,-0.18383 z m 110.6311,-0.0517 c -14.60963,-1.54428 -28.07875,-12.49391 -32.8352,-26.69319 -1.90051,-5.67353 -1.95622,-6.51197 -1.95276,-29.40051 l 0.003,-20.83809 0.74665,-1.6 c 2.55895,-5.48347 9.6153,-6.919641 13.97267,-2.84383 2.88541,2.69896 2.69012,1.0304 2.89818,24.76384 0.20106,22.93105 0.15875,22.41344 2.18374,26.72 2.10365,4.47388 5.47492,7.84418 10.11597,10.1131 11.56765,5.65521 25.44816,-0.38917 29.70976,-12.93736 0.64736,-1.90617 0.6769,-2.72509 0.83888,-23.25574 0.16698,-21.16202 0.17181,-21.28731 0.87261,-22.59728 1.57079,-2.93621 4.02583,-4.68882 7.16669,-5.11619 3.27808,-0.44603 6.95894,1.52313 8.73587,4.67346 l 0.99274,1.76 v 35.52001 35.52 l -0.7047,1.31727 c -1.13386,2.11943 -2.24445,3.23121 -4.16791,4.17226 -4.40477,2.15506 -9.80234,0.36638 -11.8496,-3.92681 -0.5976,-1.25315 -1.06176,-1.3371 -2.34416,-0.42395 -3.35741,2.39069 -10.08003,4.54318 -15.91837,5.09682 -3.80137,0.36049 -4.85664,0.35752 -8.46416,-0.0238 z m 65.58404,-0.0968 c -3.35546,-0.9311 -6.05738,-4.00878 -6.45216,-7.34952 -0.10694,-0.90501 -0.15139,-24.82947 -0.0987,-53.16548 l 0.0957,-51.519997 0.70471,-1.317271 c 1.80057,-3.365709 4.50534,-5.054493 8.09529,-5.054493 3.68375,0 6.54992,1.851316 8.13063,5.251764 0.66723,1.435385 0.66989,1.590698 0.82937,48.479997 l 0.16,47.04001 2.25802,0.20188 c 2.63197,0.2353 4.30883,1.00539 5.94672,2.731 1.61882,1.70549 2.25344,3.11362 2.43767,5.40878 0.30473,3.79628 -1.52167,6.98517 -4.97066,8.67883 -1.8176,0.89257 -1.88483,0.90006 -8.71175,0.97134 -4.96156,0.0518 -7.31078,-0.0477 -8.42486,-0.35684 z"
     id="path819" />
</svg>